<?xml version="1.0" encoding="UTF-8"?>
<svg xmlns="http://www.w3.org/2000/svg" width="156.75" height="52.466">
  <g fill-rule="evenodd" transform="translate(-109.258 -104.563)">
    <path fill="#464646" d="M203.75 124.475a3.158 3.158 0 0 1-1.454-.564 2.962 2.962 0 0 0-1.388-.392 2.367 2.367 0 0 0-1.6.572 4.437 4.437 0 0 1 1.5-.248 4.022 4.022 0 0 1 1.47.591 2.557 2.557 0 0 0 2.94-.114 3.827 3.827 0 0 1-1.468.155Zm3.136 2.523h.482l-4.778-11.154h-.588l-4.778 11.154h.482l4.582-10.732Zm54.4-11.154h-.452v11.154h5.17v-.407h-4.718Zm-28.439 5.577a5.788 5.788 0 1 0 5.788-5.773 5.683 5.683 0 0 0-5.784 5.772Zm.452 0a5.336 5.336 0 1 1 5.336 5.366 5.268 5.268 0 0 1-5.333-5.367Zm19.29-5.577v11.154h6.12v-.407h-5.668v-5h5.668v-.409h-5.668v-4.929h5.668v-.407Zm-7.761 0v.407h3.03v10.747h.452V116.25h3.03v-.407Zm-20.453 0h-.452v11.154h.452v-5.416h6.24v5.411h.452v-11.15h-.452v5.339h-6.24Zm-15.07 0h-.678v11.154h.452v-10.7l7.778 10.7h.573v-11.155h-.452v10.551Zm-19.53 0v11.154h.452V116.25h2.1a5.045 5.045 0 0 1 2.8.452 3.153 3.153 0 0 1 1.326 2.593 3.223 3.223 0 0 1-.949 2.382 3.36 3.36 0 0 1-2.472.708h-.694l3.271 4.613h.573l-3-4.206.437-.015a3.282 3.282 0 0 0 3.286-3.5 3.39 3.39 0 0 0-1.613-2.97 5.681 5.681 0 0 0-2.969-.467Zm-8.705 6.438v.407h6.647a5.464 5.464 0 0 1-5.4 4.1 5.366 5.366 0 0 1 0-10.732 5.549 5.549 0 0 1 4.522 2.261h.542a5.96 5.96 0 0 0-5.065-2.668 5.773 5.773 0 1 0 0 11.546 5.841 5.841 0 0 0 5.944-4.914ZM261.993 142.138a3.455 3.455 0 0 1-1.589-.617 3.238 3.238 0 0 0-1.518-.428 2.588 2.588 0 0 0-1.75.625 4.85 4.85 0 0 1 1.643-.271 4.4 4.4 0 0 1 1.607.646 2.795 2.795 0 0 0 3.214-.125 4.184 4.184 0 0 1-1.607.17Zm3.468 3.455h.546l-5.406-12.622h-.665l-5.407 12.622h.546l5.185-12.145Zm-32.834-6.242a6.611 6.611 0 1 0 6.611-6.594 6.491 6.491 0 0 0-6.61 6.594Zm.516 0a6.095 6.095 0 1 1 6.095 6.129 6.017 6.017 0 0 1-6.093-6.129Zm15.269-6.37h-.511v12.74h5.9v-.465h-5.389Zm-17.728 9.969a6.214 6.214 0 0 1-4.976 2.531 6.129 6.129 0 0 1 0-12.258 6.305 6.305 0 0 1 4.976 2.6h.6a6.722 6.722 0 0 0-5.578-3.065 6.594 6.594 0 1 0 5.561 10.193Zm-20.433-.448a3.7 3.7 0 0 0 7.386-.121c0-2.772-2.548-3.237-3.168-3.409-1.756-.448-3.443-.947-3.426-2.961a2.751 2.751 0 0 1 2.909-2.772 2.7 2.7 0 0 1 2.807 2.5h.516a3.189 3.189 0 0 0-3.288-2.961 3.234 3.234 0 0 0-3.46 3.323c0 2.393 2.221 2.927 3.34 3.2 1.222.327 3.254.809 3.254 3.151a3.182 3.182 0 0 1-6.353.052Zm-2.114-9.521h-.516v12.74h.516Zm-1.928-1.257.224.4 4.1-2.376-.241-.4Zm-29.677 1.257v12.74h.516v-5.508h2.445a4.849 4.849 0 0 0 3.185-.757 3.808 3.808 0 0 0 0-5.716 4.794 4.794 0 0 0-3.185-.758Zm.516.465h2.462a4.326 4.326 0 0 1 2.893.706 3.371 3.371 0 0 1 0 4.889 4.356 4.356 0 0 1-2.893.706h-2.462Zm18.644-.465h-.775v12.74h.516v-12.224l8.884 12.224h.654v-12.74h-.516v12.052Zm-10.191 0v12.74h6.99v-.465h-6.474v-5.716h6.474v-.465h-6.474v-5.63h6.474v-.465Zm16.142-1.234a3.453 3.453 0 0 1-1.589-.617 3.239 3.239 0 0 0-1.518-.429 2.589 2.589 0 0 0-1.75.625 4.852 4.852 0 0 1 1.643-.271 4.4 4.4 0 0 1 1.607.646 2.8 2.8 0 0 0 3.214-.125 4.184 4.184 0 0 1-1.606.171Z"></path>
    <path fill="#007aae" d="m170.614 144.6-15.415.691c8.406 3.994 10.785 6.214 21.137 6.937 14.331 1 22.31-2.035 22.31-2.035-5.95 3.419-13.883 6.834-22.065 6.834a46.78 46.78 0 0 1-22.56-5.338c-10.905-4.915-15.36-7.054-22.307-7.724-8.987-.868-22.458 3.119-22.458 3.119l.005-42.523h4.427v5.6h4.045v-5.6h5.038v5.6h4.088v-5.6h4.79v22.831l.163-.054 4.677-22.693.947 23.112 13.006-19.178-7.97 21.716 19.354-12.74-15.672 17.015 22.758-4.365-20.992 9.72Zm-25.421-3.013a11.63 11.63 0 0 0-13.542-11.364v9.527q.76-.022 1.548-.022a37.732 37.732 0 0 1 11.994 1.861Zm-29.5 15.208-2.444-1.775-2.444 1.775.933-2.873-2.444-1.775h3.021l.934-2.873.934 2.873h3.017l-2.444 1.775Zm10.366 0-2.444-1.775-2.444 1.775.934-2.873-2.444-1.775h3.02l.934-2.873.933 2.873h3.021l-2.444 1.775Zm10.366 0-2.444-1.775-2.444 1.775.933-2.873-2.444-1.775h3.02l.934-2.873.934 2.873h3.021l-2.444 1.775Zm10.366 0-2.444-1.775-2.447 1.78.934-2.873-2.444-1.775h3.021l.934-2.873.933 2.873h3.02l-2.443 1.775Z"></path>
  </g>
</svg>
